<?xml version="1.0" standalone="no"?>
<!DOCTYPE svg PUBLIC "-//W3C//DTD SVG 20010904//EN"
 "http://www.w3.org/TR/2001/REC-SVG-20010904/DTD/svg10.dtd">
<svg version="1.0" xmlns="http://www.w3.org/2000/svg"
 width="512.000000pt" height="512.000000pt" viewBox="0 0 512.000000 512.000000"
 preserveAspectRatio="xMidYMid meet">
<metadata>
Created by potrace 1.14, written by Peter Selinger 2001-2017
</metadata>
<g transform="translate(0.000000,512.000000) scale(0.100000,-0.100000)"
fill="#000000" stroke="none">
<path d="M1225 5001 c-3 -2 -28 -4 -57 -4 -29 1 -56 -4 -60 -11 -6 -8 -8 -7
-8 2 0 7 -4 10 -10 7 -11 -7 -42 -14 -85 -20 -16 -2 -41 -7 -55 -10 -14 -3
-38 -9 -55 -12 -16 -2 -35 -9 -42 -15 -7 -5 -17 -7 -23 -3 -5 3 -10 1 -10 -4
0 -6 -3 -10 -7 -9 -5 0 -17 -2 -28 -6 -11 -4 -33 -13 -50 -19 -16 -7 -33 -11
-37 -9 -5 1 -8 -2 -8 -8 0 -5 -7 -10 -15 -10 -8 0 -30 -9 -48 -19 -19 -11 -45
-25 -58 -33 -13 -7 -32 -19 -41 -27 -10 -8 -18 -11 -18 -8 0 4 -8 0 -17 -9
-10 -8 -47 -38 -83 -65 -74 -58 -170 -153 -170 -168 0 -6 -4 -11 -9 -11 -16 0
-124 -177 -146 -240 -1 -3 -5 -12 -8 -20 -45 -109 -66 -231 -62 -365 3 -114
27 -259 46 -279 5 -6 9 -20 9 -33 0 -13 5 -23 12 -23 6 0 9 -3 5 -6 -7 -8 47
-115 80 -160 13 -17 23 -34 23 -38 0 -10 58 -74 135 -148 109 -104 200 -196
318 -317 60 -61 113 -111 118 -111 5 0 9 -4 9 -8 0 -5 86 -95 190 -202 104
-106 190 -198 190 -203 0 -6 3 -8 6 -5 3 4 27 -16 54 -44 48 -49 48 -50 45
-110 -3 -70 15 -138 49 -182 34 -46 37 -63 42 -227 2 -83 7 -155 11 -162 4 -7
8 -19 8 -27 0 -8 4 -21 8 -28 5 -6 6 -12 2 -12 -9 0 44 -99 65 -120 11 -11 18
-20 15 -20 -13 0 67 -63 121 -95 92 -55 185 -79 354 -90 257 -17 295 -23 380
-62 46 -21 113 -83 428 -399 206 -206 390 -387 410 -402 21 -15 39 -29 42 -32
3 -3 28 -20 55 -38 28 -17 55 -35 60 -39 6 -5 17 -9 25 -11 8 -2 17 -8 18 -13
2 -5 11 -9 20 -9 8 0 23 -7 32 -15 9 -8 29 -16 43 -17 15 -1 27 -5 27 -9 0
-10 160 -60 171 -54 5 4 9 2 9 -4 0 -5 8 -10 18 -10 9 -1 46 -4 82 -7 176 -18
403 -5 463 27 15 9 18 8 11 -3 -5 -8 2 -6 19 5 15 9 27 15 27 12 0 -3 16 1 35
9 19 8 35 13 35 10 0 -2 22 7 50 21 27 14 50 23 50 20 0 -3 9 3 21 14 12 11
28 17 37 14 10 -4 13 -2 8 5 -4 7 -1 12 6 12 48 0 378 296 378 338 0 5 7 15
15 22 8 7 21 24 28 39 23 45 42 76 50 82 5 3 8 8 7 10 -1 2 11 30 26 63 15 32
30 73 35 90 4 17 17 64 28 104 11 40 24 103 29 140 10 70 8 275 -2 327 -32
168 -51 227 -108 348 -28 59 -54 107 -57 107 -3 0 -12 13 -19 29 -7 16 -24 41
-37 55 -13 14 -22 26 -19 26 8 0 -37 48 -208 221 -93 93 -168 174 -168 181 0
6 -3 9 -6 6 -3 -3 -43 32 -89 79 -82 82 -94 102 -113 188 -12 61 -5 160 18
235 13 41 24 77 25 80 0 3 3 10 7 16 12 18 21 92 14 117 -10 41 -80 69 -172
68 -44 -1 -90 -3 -104 -6 -14 -3 -44 -8 -66 -11 -23 -2 -53 -7 -65 -10 -39 -8
-101 -15 -153 -18 l-49 -2 -527 526 c-291 289 -563 560 -607 602 -68 67 -130
129 -163 163 -5 6 -43 44 -83 86 -80 83 -186 165 -282 219 -33 19 -63 37 -66
42 -3 5 -14 10 -25 13 -19 4 -130 47 -169 66 -11 5 -29 11 -40 12 -11 2 -27 7
-35 10 -13 4 -47 14 -85 22 -13 3 -72 14 -110 21 -16 2 -61 6 -100 9 -38 2
-70 5 -70 5 0 4 -146 5 -150 1z"/>
</g>
</svg>
